<?xml version="1.0" encoding="UTF-8" standalone="no"?><!DOCTYPE svg PUBLIC "-//W3C//DTD SVG 1.1//EN" "http://www.w3.org/Graphics/SVG/1.1/DTD/svg11.dtd"><svg width="100%" height="100%" viewBox="0 0 125 30" version="1.1" xmlns="http://www.w3.org/2000/svg" xmlns:xlink="http://www.w3.org/1999/xlink" xml:space="preserve" xmlns:serif="http://www.serif.com/" style="fill-rule:evenodd;clip-rule:evenodd;stroke-linejoin:round;stroke-miterlimit:1.41421;"><g><g><path d="M59.941,1.251l12.7,0l0,3.4l-9.2,0l0,5.5l7.2,0l0,3.4l-7.2,0l0,9.2l-3.5,0l0,-21.5Z" style="fill-rule:nonzero;"/><rect x="74.841" y="-0.049" width="3.3" height="22.6" style="fill-rule:nonzero;"/><path d="M80.941,15.051c0,-4.4 3.3,-7.8 7.9,-7.8c4,0 7.3,2.6 7.3,7.5c0,0.3 0,0.6 0,1.1l-11.9,0c0.2,2.5 2.1,4.1 4.6,4.1c2.1,0 3.5,-1 4.3,-2.3l2.5,1.8c-1.4,2.2 -3.7,3.5 -6.9,3.5c-4.6,0 -7.8,-3.2 -7.8,-7.9Zm11.8,-1.7c-0.4,-2.2 -2.1,-3.4 -4,-3.4c-2,0 -3.9,1.1 -4.3,3.4l8.3,0Z" style="fill-rule:nonzero;"/><path d="M97.941,15.051c0,-4.4 3.3,-7.8 7.9,-7.8c4,0 7.3,2.6 7.3,7.5c0,0.3 0,0.6 0,1.1l-11.9,0c0.2,2.5 2.1,4.1 4.6,4.1c2.1,0 3.5,-1 4.3,-2.3l2.5,1.8c-1.4,2.2 -3.7,3.5 -6.9,3.5c-4.5,0 -7.8,-3.2 -7.8,-7.9Zm11.8,-1.7c-0.4,-2.2 -2.1,-3.4 -4,-3.4c-2,0 -3.9,1.1 -4.3,3.4l8.3,0Z" style="fill-rule:nonzero;"/><path d="M117.241,17.751l0,-7.3l-3.1,0l0,-3l3.1,0l0,-4.2l3.3,0l0,4.2l4.3,0l0,3l-4.3,0l0,6.7c0,1.9 0.8,2.6 2.5,2.6c0.6,0 1.3,-0.1 1.8,-0.3l0,3c-0.7,0.2 -1.4,0.3 -2.5,0.3c-2.8,0 -5.1,-1.6 -5.1,-5Z" style="fill-rule:nonzero;"/></g><g><path d="M39.441,1.251l0,21.6l-5.1,0l0,-20.5l5.1,-1.1Z" style="fill:#34d186;fill-rule:nonzero;"/><path d="M24.941,7.351c-4.3,0 -7.9,3.5 -7.9,7.9c0,4.4 3.5,7.9 7.9,7.9c4.3,0 7.9,-3.5 7.9,-7.9c0,-4.4 -3.6,-7.9 -7.9,-7.9Zm0,10.4c-1.4,0 -2.5,-1.1 -2.5,-2.5c0,-1.4 1.1,-2.5 2.5,-2.5c1.4,0 2.5,1.1 2.5,2.5c0.1,1.4 -1.1,2.5 -2.5,2.5Z" style="fill:#34d186;fill-rule:nonzero;"/><circle cx="24.941" cy="27.451" r="2.5" style="fill:#34d186;"/><path d="M13.641,11.451c0.6,-1 1,-2.2 1,-3.5c0,-3.7 -3,-6.7 -6.7,-6.7l-2.8,0l-5.1,0l0,21.6l8.9,0c3.7,0 6.7,-3 6.7,-6.7c0,-1.8 -0.8,-3.5 -2,-4.7Zm-8.5,-5.1l2.8,0c0.9,0 1.6,0.7 1.6,1.6c0,0.9 -0.7,1.6 -1.6,1.6l-2.8,0l0,-3.2Zm3.8,11.4l-3.8,0l0,-3.2l3.8,0c0.9,0 1.6,0.7 1.6,1.6c0,0.9 -0.7,1.6 -1.6,1.6Z" style="fill:#34d186;fill-rule:nonzero;"/><path d="M49.041,12.751l0,-5.1l-2.5,0l0,-3.9l-5.1,1.1l0,13.1c0,3.1 1.9,4.9 4.8,5l0.4,0c1.4,0 2.5,-0.6 2.5,-0.6l0,-3.6c0,0 -0.5,0.1 -1.1,0.1c-1,0 -1.4,-0.9 -1.4,-2.1l0,-4l2.4,0Z" style="fill:#34d186;fill-rule:nonzero;"/></g></g></svg>